PathFileType   4   (X/Y/Z)
DataRate	CameraRate	NumFrames	NumMarkers	Units	OrigDataRate	OrigDataStartFrame	OrigNumFrames
120.0	120.0	5	37	mm	120.0	68	81
Frame#	Time	midhip	hip_r	hip_l	knee_r	knee_l	ankle_r	ankle_l	midasis	asis_r	asis_l	psis_r	psis_l	epicondLat_r	epicondLat_l	epicondMed_r	epicondMed_l	malleolusLat_r	malleolusLat_l	malleolusMedv_r	malleolusMedv_l	neck	subclavicle_r	subclavicle_l	sternalnotch	xyphoidprocess	thighwand_r	thighwand_l	upperleg1_r	upperleg1_l	upperleg2_r	upperleg2_l	shankwand_r	shankwand_l	lowerleg1_r	lowerleg1_l	toe_r	toe_l
 	 	X1	Y1	Z1	X2	Y2	Z2	X3	Y3	Z3	X4	Y4	Z4	X5	Y5	Z5	X6	Y6	Z6	X7	Y7	Z7	X8	Y8	Z8	X9	Y9	Z9	X10	Y10	Z10	X11	Y11	Z11	X12	Y12	Z12	X13	Y13	Z13	X14	Y14	Z14	X15	Y15	Z15	X16	Y16	Z16	X17	Y17	Z17	X18	Y18	Z18	X19	Y19	Z19	X20	Y20	Z20	X21	Y21	Z21	X22	Y22	Z22	X23	Y23	Z23	X24	Y24	Z24	X25	Y25	Z25	X26	Y26	Z26	X27	Y27	Z27	X28	Y28	Z28	X29	Y29	Z29	X30	Y30	Z30	X31	Y31	Z31	X32	Y32	Z32	X33	Y33	Z33	X34	Y34	Z34	X35	Y35	Z35	X36	Y36	Z36	X37	Y37	Z37

	68	0.62500	1592.159	833.565	-232.128	1576.297	819.189	-172.480	1598.824	808.157	-287.242	1461.011	465.257	-199.362	1779.195	475.171	-279.372	1377.975	79.166	-230.273	1759.456	80.582	-289.807	1652.426	888.827	-218.253	1624.912	897.756	-122.312	1679.940	879.898	-314.194	1499.280	932.528	-246.235	1514.474	923.514	-298.627	1458.040	462.060	-144.535	1803.480	487.208	-326.655	1459.484	466.943	-246.231	1771.438	453.072	-241.111	1359.494	80.438	-196.523	1769.174	81.081	-327.057	1400.047	87.768	-256.474	1782.075	89.442	-262.010	1572.403	1336.444	-224.120	1661.228	1245.116	-182.327	1664.115	1248.294	-285.098	1649.610	1260.407	-238.940	1677.633	1086.801	-242.372	1642.935	590.828	-161.123	1806.685	676.500	-221.561	1575.382	660.580	-125.633	1753.986	692.513	-304.492	1543.071	581.705	-131.869	1794.541	615.649	-295.275	1361.466	195.648	-118.670	1749.992	199.924	-392.059	1374.965	203.072	-159.109	1758.212	202.211	-348.713	1475.986	40.265	-171.999	1885.612	66.916	-293.230
	69	0.63333	1608.722	832.128	-232.506	1592.097	817.411	-172.923	1615.695	806.792	-287.510	1470.226	465.526	-200.251	1795.133	474.004	-278.949	1379.425	81.189	-231.216	1799.176	77.364	-288.922	1668.517	887.333	-217.771	1640.123	895.896	-122.106	1696.910	878.769	-313.437	1515.672	930.878	-247.218	1531.234	921.978	-299.433	1466.558	462.541	-145.454	1820.232	486.334	-325.728	1469.799	467.076	-247.753	1784.418	450.645	-237.753	1360.716	82.901	-197.611	1809.076	78.400	-326.113	1401.508	89.268	-257.413	1822.722	87.429	-261.105	1588.576	1334.799	-224.358	1677.487	1243.779	-182.099	1680.566	1246.762	-285.040	1665.971	1258.944	-238.896	1694.355	1085.383	-241.879	1654.152	587.885	-160.205	1821.559	674.158	-219.612	1587.388	658.944	-125.950	1768.381	689.791	-302.641	1553.729	580.635	-132.457	1808.442	612.685	-293.084	1364.525	198.281	-119.948	1783.192	195.914	-391.462	1377.972	205.309	-160.419	1792.637	197.922	-348.439	1476.199	40.467	-172.383	1926.493	69.781	-292.485
	70	0.64167	1625.652	830.712	-232.995	1608.315	815.659	-173.366	1632.775	805.486	-287.812	1480.059	465.799	-200.805	1811.067	472.708	-278.787	1380.987	83.538	-231.786	1836.357	75.239	-287.983	1684.936	885.874	-217.405	1655.842	894.045	-121.981	1714.030	877.703	-312.828	1532.374	929.253	-248.030	1548.200	920.519	-300.099	1475.778	463.073	-146.040	1836.762	485.216	-325.194	1480.401	467.382	-248.944	1796.906	447.946	-234.764	1362.136	85.708	-198.287	1846.536	76.745	-325.083	1403.055	91.235	-258.041	1860.661	86.900	-260.047	1604.529	1333.259	-224.757	1693.633	1242.741	-182.112	1696.966	1245.508	-285.086	1682.242	1257.705	-238.962	1711.277	1084.280	-241.511	1665.901	585.041	-159.263	1837.025	671.733	-218.398	1599.839	657.284	-125.940	1783.114	686.746	-301.427	1564.883	579.656	-132.748	1822.291	609.192	-291.772	1368.098	201.181	-120.770	1815.049	192.647	-390.997	1381.396	207.727	-161.206	1826.054	195.048	-348.329	1476.390	40.705	-172.599	1964.685	73.255	-291.520
	71	0.65000	1642.862	829.268	-233.631	1624.947	813.974	-173.802	1650.063	804.262	-288.146	1490.626	466.075	-201.024	1827.088	471.382	-278.874	1382.712	86.275	-231.983	1870.754	73.971	-287.002	1701.682	884.489	-217.157	1672.062	892.254	-121.933	1731.303	876.724	-312.382	1549.376	927.684	-248.687	1565.364	919.152	-300.664	1485.831	463.644	-146.287	1853.194	483.980	-325.026	1491.084	467.930	-249.209	1810.131	445.279	-232.869	1363.816	88.918	-198.543	1881.202	75.875	-324.008	1404.708	93.603	-258.300	1895.478	87.438	-258.791	1620.301	1331.900	-225.244	1709.685	1241.946	-182.237	1713.292	1244.515	-285.218	1698.449	1256.687	-239.155	1728.263	1083.449	-241.261	1678.307	582.387	-158.324	1853.035	669.351	-217.798	1613.118	655.683	-125.640	1798.577	683.840	-300.845	1576.802	578.909	-132.553	1836.851	605.799	-291.273	1372.289	204.369	-121.125	1845.059	190.091	-390.613	1385.418	210.380	-161.467	1857.370	193.816	-348.218	1476.629	40.997	-172.660	1999.876	76.908	-290.332
	72	0.65833	1660.389	827.889	-234.404	1641.989	812.406	-174.233	1667.563	803.153	-288.513	1502.047	466.353	-200.925	1843.205	470.103	-279.196	1384.663	89.457	-231.821	1902.193	73.302	-286.007	1718.753	883.224	-217.040	1688.771	890.585	-121.964	1748.735	875.863	-312.116	1566.666	926.209	-249.214	1582.720	917.898	-301.154	1496.850	464.235	-146.212	1869.593	482.733	-325.178	1502.178	468.557	-248.706	1825.123	442.807	-233.116	1365.828	92.582	-198.388	1912.801	75.513	-322.950	1406.609	96.330	-258.056	1926.743	88.595	-257.606	1636.058	1330.621	-225.885	1725.734	1241.349	-182.445	1729.536	1243.705	-285.469	1714.633	1255.877	-239.485	1745.287	1082.822	-241.092	1691.492	580.007	-157.417	1869.460	667.132	-217.653	1627.288	654.172	-125.134	1814.935	681.494	-300.874	1589.599	578.239	-131.984	1852.660	603.140	-291.648	1377.206	207.864	-121.029	1872.749	188.152	-390.264	1390.137	213.315	-161.267	1885.610	193.680	-348.096	1477.003	41.367	-172.594	2031.847	80.280	-288.993
